<svg width="1416" height="342" viewBox="0 0 1416 342" fill="none" xmlns="http://www.w3.org/2000/svg">
<rect width="1416" height="342" rx="8" fill="black"/>
<g clip-path="url(#clip0_1469_4222)">
<rect x="34" y="33" width="280" height="280" rx="16" fill="white"/>
<line x1="34" y1="96" x2="314" y2="96" stroke="#00D400" stroke-width="14"/>
<line x1="34" y1="110" x2="314" y2="110" stroke="#00D400" stroke-width="14"/>
<line x1="34" y1="82" x2="314" y2="82" stroke="#00DF00" stroke-width="14"/>
<line x1="34" y1="68" x2="314" y2="68" stroke="#00DF00" stroke-width="14"/>
<line x1="34" y1="54" x2="314" y2="54" stroke="#00EA00" stroke-width="14"/>
<line x1="34" y1="40" x2="314" y2="40" stroke="#00EA00" stroke-width="14"/>
<line x1="34" y1="124" x2="314" y2="124" stroke="#00C900" stroke-width="14"/>
<line x1="34" y1="138" x2="314" y2="138" stroke="#00C900" stroke-width="14"/>
<line x1="34" y1="152" x2="314" y2="152" stroke="#00BE00" stroke-width="14"/>
<line x1="34" y1="166" x2="314" y2="166" stroke="#00BE00" stroke-width="14"/>
<line x1="34" y1="180" x2="314" y2="180" stroke="#00B300" stroke-width="14"/>
<line x1="34" y1="194" x2="314" y2="194" stroke="#00B300" stroke-width="14"/>
<line x1="34" y1="208" x2="314" y2="208" stroke="#00A800" stroke-width="14"/>
<line x1="34" y1="222" x2="314" y2="222" stroke="#00A800" stroke-width="14"/>
<line x1="34" y1="236" x2="314" y2="236" stroke="#009D00" stroke-width="14"/>
<line x1="34" y1="250" x2="314" y2="250" stroke="#009D00" stroke-width="14"/>
<line x1="34" y1="264" x2="314" y2="264" stroke="#009200" stroke-width="14"/>
<line x1="34" y1="278" x2="314" y2="278" stroke="#009200" stroke-width="14"/>
<line x1="34" y1="292" x2="314" y2="292" stroke="#008700" stroke-width="14"/>
<line x1="34" y1="306" x2="314" y2="306" stroke="#008700" stroke-width="14"/>
<line x1="272" y1="82" x2="230" y2="82" stroke="#F5F5F5" stroke-width="14"/>
<line x1="265" y1="89" x2="265" y2="103" stroke="#F5F5F5" stroke-width="14"/>
<line x1="265" y1="103" x2="265" y2="117" stroke="#F5F5F5" stroke-width="14"/>
<line x1="265" y1="117" x2="265" y2="131" stroke="#F5F5F5" stroke-width="14"/>
<line x1="272" y1="166" x2="230" y2="166" stroke="#F5F5F5" stroke-width="14"/>
<line x1="160" y1="152" x2="244" y2="152" stroke="#F5F5F5" stroke-width="14"/>
<line x1="244" y1="96" x2="118" y2="96" stroke="#F5F5F5" stroke-width="14"/>
<line x1="90" y1="124" x2="118" y2="124" stroke="#F5F5F5" stroke-width="14"/>
<line x1="104" y1="110" x2="132" y2="110" stroke="#F5F5F5" stroke-width="14"/>
<line x1="265" y1="131" x2="265" y2="145" stroke="#F5F5F5" stroke-width="14"/>
<line x1="265" y1="145" x2="265" y2="159" stroke="#F5F5F5" stroke-width="14"/>
<line x1="97" y1="131" x2="97" y2="145" stroke="#F5F5F5" stroke-width="14"/>
<line x1="97" y1="145" x2="97" y2="159" stroke="#F5F5F5" stroke-width="14"/>
<line x1="97" y1="159" x2="97" y2="173" stroke="#F5F5F5" stroke-width="14"/>
<line x1="153" y1="159" x2="153" y2="173" stroke="#F5F5F5" stroke-width="14"/>
<line x1="153" y1="173" x2="153" y2="187" stroke="#F5F5F5" stroke-width="14"/>
<line x1="97" y1="173" x2="97" y2="187" stroke="#F5F5F5" stroke-width="14"/>
<line x1="153" y1="187" x2="153" y2="201" stroke="#F5F5F5" stroke-width="14"/>
<line x1="153" y1="201" x2="153" y2="215" stroke="#F5F5F5" stroke-width="14"/>
<line x1="153" y1="215" x2="153" y2="229" stroke="#F5F5F5" stroke-width="14"/>
<line x1="146" y1="236" x2="174" y2="236" stroke="#F5F5F5" stroke-width="14"/>
<line x1="104" y1="236" x2="76" y2="236" stroke="#F5F5F5" stroke-width="14"/>
<line x1="97" y1="215" x2="97" y2="229" stroke="#F5F5F5" stroke-width="14"/>
<line x1="97" y1="201" x2="97" y2="215" stroke="#F5F5F5" stroke-width="14"/>
<line x1="97" y1="187" x2="97" y2="201" stroke="#F5F5F5" stroke-width="14"/>
<line x1="83" y1="243" x2="83" y2="257" stroke="#F5F5F5" stroke-width="14"/>
<line x1="167" y1="243" x2="167" y2="257" stroke="#F5F5F5" stroke-width="14"/>
<line x1="76" y1="264" x2="174" y2="264" stroke="#F5F5F5" stroke-width="14"/>
</g>
<rect x="41" y="40" width="266" height="266" rx="9" stroke="#F5F5F5" stroke-width="14"/>
<path d="M402.8 271.36V116.8H428.28V91.32H507.24V116.8H533V195.2H507.24V220.68H431.08V271.36H402.8ZM431.08 192.4H504.44V119.6H431.08V192.4ZM550.194 271.36V91.32H578.474V271.36H550.194ZM621.075 271.36V246.16H595.595V142H623.875V243.36H697.235V142H725.795V246.16H700.035V271.36H621.075ZM748.458 271.36V142H827.698V167.48H850.098V142H904.138V167.48H929.338V271.36H901.338V170H852.898V271.36H824.898V170H776.738V271.36H748.458ZM971.918 271.36V246.16H946.438V91.32H974.718V142H1050.88V167.48H1076.64V246.16H1050.88V271.36H971.918ZM974.718 243.36H1048.08V170H974.718V243.36ZM1119.31 271.36V246.16H1093.83V167.48H1119.31V142H1198.27V167.48H1224.03V195.2H1195.47V170H1122.11V192.4H1173.07V220.68H1122.11V243.36H1195.47V217.6H1224.03V245.88H1198.27V271.36H1119.31ZM1246.69 271.36V167.48H1272.17V142H1351.13V167.48H1376.89V195.2H1348.33V170H1274.97V271.36H1246.69Z" fill="white"/>
<defs>
<clipPath id="clip0_1469_4222">
<rect x="34" y="33" width="280" height="280" rx="16" fill="white"/>
</clipPath>
</defs>
</svg>