<svg width="2275" height="296" viewBox="0 0 2275 296" fill="none" xmlns="http://www.w3.org/2000/svg">
<rect width="2275" height="296" rx="8" fill="url(#paint0_linear_1471_4388)"/>
<g clip-path="url(#clip0_1471_4388)">
<rect x="48" y="48.6523" width="202.723" height="202.723" rx="11.5842" fill="#F5F5F5"/>
<line x1="48" y1="94.2639" x2="250.723" y2="94.2639" stroke="#00D400" stroke-width="10.1362"/>
<line x1="48" y1="104.401" x2="250.723" y2="104.401" stroke="#00D400" stroke-width="10.1362"/>
<line x1="48" y1="84.1272" x2="250.723" y2="84.1272" stroke="#00DF00" stroke-width="10.1362"/>
<line x1="48" y1="73.9944" x2="250.723" y2="73.9944" stroke="#00DF00" stroke-width="10.1362"/>
<line x1="48" y1="63.8577" x2="250.723" y2="63.8577" stroke="#00EA00" stroke-width="10.1362"/>
<line x1="48" y1="53.721" x2="250.723" y2="53.721" stroke="#00EA00" stroke-width="10.1362"/>
<line x1="48" y1="114.537" x2="250.723" y2="114.537" stroke="#00C900" stroke-width="10.1362"/>
<line x1="48" y1="124.674" x2="250.723" y2="124.674" stroke="#00C900" stroke-width="10.1362"/>
<line x1="48" y1="134.811" x2="250.723" y2="134.811" stroke="#00BE00" stroke-width="10.1362"/>
<line x1="48" y1="144.948" x2="250.723" y2="144.948" stroke="#00BE00" stroke-width="10.1362"/>
<line x1="48" y1="155.08" x2="250.723" y2="155.08" stroke="#00B300" stroke-width="10.1362"/>
<line x1="48" y1="165.217" x2="250.723" y2="165.217" stroke="#00B300" stroke-width="10.1362"/>
<line x1="48" y1="175.354" x2="250.723" y2="175.354" stroke="#00A800" stroke-width="10.1362"/>
<line x1="48" y1="185.491" x2="250.723" y2="185.491" stroke="#00A800" stroke-width="10.1362"/>
<line x1="48" y1="195.627" x2="250.723" y2="195.627" stroke="#009D00" stroke-width="10.1362"/>
<line x1="48" y1="205.764" x2="250.723" y2="205.764" stroke="#009D00" stroke-width="10.1362"/>
<line x1="48" y1="215.901" x2="250.723" y2="215.901" stroke="#009200" stroke-width="10.1362"/>
<line x1="48" y1="226.033" x2="250.723" y2="226.033" stroke="#009200" stroke-width="10.1362"/>
<line x1="48" y1="236.17" x2="250.723" y2="236.17" stroke="#008700" stroke-width="10.1362"/>
<line x1="48" y1="246.311" x2="250.723" y2="246.311" stroke="#008700" stroke-width="10.1362"/>
<line x1="220.315" y1="84.1306" x2="189.907" y2="84.1306" stroke="#F5F5F5" stroke-width="10.1362"/>
<line x1="215.247" y1="89.1953" x2="215.247" y2="99.3315" stroke="#F5F5F5" stroke-width="10.1362"/>
<line x1="215.247" y1="99.332" x2="215.247" y2="109.468" stroke="#F5F5F5" stroke-width="10.1362"/>
<line x1="215.247" y1="109.469" x2="215.247" y2="119.605" stroke="#F5F5F5" stroke-width="10.1362"/>
<line x1="220.315" y1="144.947" x2="189.907" y2="144.947" stroke="#F5F5F5" stroke-width="10.1362"/>
<line x1="139.226" y1="134.811" x2="200.043" y2="134.811" stroke="#F5F5F5" stroke-width="10.1362"/>
<line x1="200.043" y1="94.2634" x2="108.817" y2="94.2634" stroke="#F5F5F5" stroke-width="10.1362"/>
<line x1="88.5449" y1="114.537" x2="108.817" y2="114.537" stroke="#F5F5F5" stroke-width="10.1362"/>
<line x1="98.6807" y1="104.401" x2="118.953" y2="104.401" stroke="#F5F5F5" stroke-width="10.1362"/>
<line x1="215.247" y1="119.605" x2="215.247" y2="129.742" stroke="#F5F5F5" stroke-width="10.1362"/>
<line x1="215.247" y1="129.742" x2="215.247" y2="139.878" stroke="#F5F5F5" stroke-width="10.1362"/>
<line x1="93.613" y1="119.605" x2="93.613" y2="129.742" stroke="#F5F5F5" stroke-width="10.1362"/>
<line x1="93.613" y1="129.742" x2="93.613" y2="139.878" stroke="#F5F5F5" stroke-width="10.1362"/>
<line x1="93.613" y1="139.879" x2="93.613" y2="150.015" stroke="#F5F5F5" stroke-width="10.1362"/>
<line x1="134.157" y1="139.879" x2="134.157" y2="150.015" stroke="#F5F5F5" stroke-width="10.1362"/>
<line x1="134.157" y1="150.016" x2="134.157" y2="160.152" stroke="#F5F5F5" stroke-width="10.1362"/>
<line x1="93.613" y1="150.016" x2="93.613" y2="160.152" stroke="#F5F5F5" stroke-width="10.1362"/>
<line x1="134.157" y1="160.148" x2="134.157" y2="170.285" stroke="#F5F5F5" stroke-width="10.1362"/>
<line x1="134.157" y1="170.285" x2="134.157" y2="180.421" stroke="#F5F5F5" stroke-width="10.1362"/>
<line x1="134.157" y1="180.422" x2="134.157" y2="190.558" stroke="#F5F5F5" stroke-width="10.1362"/>
<line x1="129.089" y1="195.627" x2="149.361" y2="195.627" stroke="#F5F5F5" stroke-width="10.1362"/>
<line x1="98.6807" y1="195.627" x2="78.4083" y2="195.627" stroke="#F5F5F5" stroke-width="10.1362"/>
<line x1="93.613" y1="180.422" x2="93.613" y2="190.558" stroke="#F5F5F5" stroke-width="10.1362"/>
<line x1="93.613" y1="170.285" x2="93.613" y2="180.421" stroke="#F5F5F5" stroke-width="10.1362"/>
<line x1="93.613" y1="160.148" x2="93.613" y2="170.285" stroke="#F5F5F5" stroke-width="10.1362"/>
<line x1="83.4763" y1="200.695" x2="83.4763" y2="210.831" stroke="#F5F5F5" stroke-width="10.1362"/>
<line x1="144.294" y1="200.695" x2="144.294" y2="210.831" stroke="#F5F5F5" stroke-width="10.1362"/>
<line x1="78.4082" y1="215.901" x2="149.361" y2="215.901" stroke="#F5F5F5" stroke-width="10.1362"/>
</g>
<rect x="53.0681" y="53.7204" width="192.587" height="192.587" rx="6.51611" stroke="#F5F5F5" stroke-width="10.1362"/>
<path d="M328.297 215.459V102.327H346.947V83.6765H404.743V102.327H423.599V159.713H404.743V178.363H348.997V215.459H328.297ZM348.997 157.663H402.694V104.376H348.997V157.663ZM436.184 215.459V83.6765H456.884V215.459H436.184ZM488.067 215.459V197.014H469.416V120.772H490.116V194.964H543.813V120.772H564.718V197.014H545.863V215.459H488.067ZM581.306 215.459V120.772H639.307V139.423H655.703V120.772H695.258V139.423H713.704V215.459H693.209V141.267H657.753V215.459H637.258V141.267H602.006V215.459H581.306ZM744.871 215.459V197.014H726.22V83.6765H746.92V120.772H802.667V139.423H821.522V197.014H802.667V215.459H744.871ZM746.92 194.964H800.617V141.267H746.92V194.964ZM852.758 215.459V197.014H834.107V139.423H852.758V120.772H910.554V139.423H929.409V159.713H908.504V141.267H854.807V157.663H892.108V178.363H854.807V194.964H908.504V176.109H929.409V196.809H910.554V215.459H852.758ZM945.997 215.459V139.423H964.648V120.772H1022.44V139.423H1041.3V159.713H1020.39V141.267H966.697V215.459H945.997Z" fill="#F5F5F5"/>
<path d="M2053.26 211.384V208.504H2050.34V193.72H2053.26V190.808H2062.28V193.72H2065.22V199.8H2061.96V194.04H2053.58V208.184H2061.96V205.592H2059.08V202.68H2056.14V199.512H2059.4V202.36H2065.22V208.504H2062.28V211.384H2053.26ZM2067.81 211.384V196.6H2071.05V211.384H2067.81ZM2067.81 194.04V190.808H2071.05V194.04H2067.81ZM2078.45 211.384V208.504H2075.57V199.8H2072.66V196.6H2075.57V190.808H2078.77V196.6H2087.54V199.8H2078.77V208.184H2087.22V205.272H2090.45V208.504H2087.54V211.384H2078.45ZM2095.95 211.384V208.504H2093.03V190.808H2096.27V208.184H2104.65V205.272H2107.91V208.504H2104.97V211.384H2095.95ZM2112.45 211.384V208.504H2109.54V199.512H2112.45V196.6H2121.47V199.512H2124.42V208.184H2127.33V211.384H2124.1V208.504H2121.47V211.384H2112.45ZM2112.77 208.184H2121.15V199.8H2112.77V208.184ZM2131.23 211.384V208.504H2128.32V190.808H2131.55V196.6H2140.25V199.512H2143.2V208.504H2140.25V211.384H2131.23ZM2131.55 208.184H2139.93V199.8H2131.55V208.184ZM2153.83 211.384V208.504H2150.91V193.72H2153.83V190.808H2162.85V193.72H2165.79V199.8H2162.53V194.04H2154.15V208.184H2162.53V202.36H2165.79V208.504H2162.85V211.384H2153.83ZM2168.39 211.384V208.184H2171.3V194.04H2168.39V190.808H2177.44V194.04H2174.5V208.184H2177.44V211.384H2168.39ZM2180.04 211.384L2190.22 190.808H2193.07L2182.89 211.384H2180.04ZM2198.61 211.384V208.504H2195.7V193.72H2198.61V190.808H2207.64V193.72H2210.58V199.8H2207.32V194.04H2198.93V208.184H2207.32V202.36H2210.58V208.504H2207.64V211.384H2198.61ZM2213.17 211.384V190.808H2222.23V193.72H2225.11V196.6H2228.05V205.592H2225.11V208.504H2222.23V211.384H2213.17ZM2216.4 208.184H2221.91V205.272H2224.79V196.92H2221.91V194.04H2216.4V208.184ZM2024.94 251.384V248.504H2022.03V233.72H2024.94V230.808H2033.96V233.72H2036.91V239.8H2033.64V234.04H2025.26V248.184H2033.64V242.36H2036.91V248.504H2033.96V251.384H2024.94ZM2042.41 251.384V248.504H2039.5V239.512H2042.41V236.6H2051.43V239.512H2054.38V248.504H2051.43V251.384H2042.41ZM2042.73 248.184H2051.11V239.8H2042.73V248.184ZM2056.97 251.384V236.6H2066.02V239.512H2068.58V236.6H2074.76V239.512H2077.64V251.384H2074.44V239.8H2068.9V251.384H2065.7V239.8H2060.2V251.384H2056.97ZM2080.22 257.016V239.512H2083.13V236.6H2092.16V239.512H2095.1V248.504H2092.16V251.384H2083.45V257.016H2080.22ZM2083.45 248.184H2091.84V239.8H2083.45V248.184ZM2097.69 251.384V230.808H2100.92V251.384H2097.69ZM2103.5 251.384V236.6H2106.74V251.384H2103.5ZM2103.5 234.04V230.808H2106.74V234.04H2103.5ZM2111.6 251.384V248.504H2108.69V239.512H2111.6V236.6H2120.63V239.512H2123.57V248.184H2126.48V251.384H2123.25V248.504H2120.63V251.384H2111.6ZM2111.92 248.184H2120.31V239.8H2111.92V248.184ZM2128.1 251.384V236.6H2140.04V239.512H2142.98V251.384H2139.72V239.8H2131.33V251.384H2128.1ZM2147.86 251.384V248.504H2144.95V239.512H2147.86V236.6H2156.88V239.512H2159.83V242.68H2156.56V239.8H2148.18V248.184H2156.56V245.272H2159.83V248.504H2156.88V251.384H2147.86ZM2164.36 251.384V248.504H2161.45V239.512H2164.36V236.6H2173.38V239.512H2176.33V242.68H2173.06V239.8H2164.68V242.36H2170.5V245.592H2164.68V248.184H2173.06V245.24H2176.33V248.472H2173.38V251.384H2164.36ZM2186.95 251.384V248.504H2184.04V233.72H2186.95V230.808H2195.98V233.72H2198.92V239.8H2195.66V234.04H2187.27V248.184H2195.66V242.36H2198.92V248.504H2195.98V251.384H2186.95ZM2204.42 251.384V248.504H2201.51V230.808H2204.74V248.184H2213.13V245.272H2216.39V248.504H2213.45V251.384H2204.42ZM2218.98 251.384V248.184H2221.89V234.04H2218.98V230.808H2228.04V234.04H2225.09V248.184H2228.04V251.384H2218.98Z" fill="white"/>
<defs>
<linearGradient id="paint0_linear_1471_4388" x1="0" y1="148" x2="2275" y2="148" gradientUnits="userSpaceOnUse">
<stop/>
<stop offset="0.658653" stop-color="#002C00"/>
<stop offset="0.850961" stop-color="#004500"/>
<stop offset="1" stop-color="#008700"/>
</linearGradient>
<clipPath id="clip0_1471_4388">
<rect x="48" y="48.6523" width="202.723" height="202.723" rx="11.5842" fill="white"/>
</clipPath>
</defs>
</svg>
